<mxfile modified="2023-07-10T11:02:01.169Z" host="app.diagrams.net" agent="Mozilla/5.0 (Windows NT 10.0; Win64; x64) AppleWebKit/537.36 (KHTML, like Gecko) Chrome/114.0.0.0 Safari/537.36 Edg/114.0.1823.67" etag="1O2LLTCBuxsWKU6Xiz7z" version="21.6.1" type="github">
  <diagram id="Ht1M8jgEwFfnCIfOTk4-" name="Page-1">
    <mxGraphModel dx="769" dy="623" grid="1" gridSize="10" guides="1" tooltips="1" connect="1" arrows="1" fold="1" page="1" pageScale="1" pageWidth="1169" pageHeight="827" math="0" shadow="0">
      <root>
        <mxCell id="0" />
        <mxCell id="1" parent="0" />
        <mxCell id="my8Uk6XDIzU6nTVdbkKR-16" value="" style="edgeStyle=orthogonalEdgeStyle;rounded=0;orthogonalLoop=1;jettySize=auto;html=1;" parent="1" source="my8Uk6XDIzU6nTVdbkKR-5" target="my8Uk6XDIzU6nTVdbkKR-15" edge="1">
          <mxGeometry relative="1" as="geometry" />
        </mxCell>
        <mxCell id="my8Uk6XDIzU6nTVdbkKR-5" value="&lt;font style=&quot;font-size: 14px;&quot; color=&quot;#ffffff&quot;&gt;Recommendation Engine&lt;/font&gt;" style="rounded=0;whiteSpace=wrap;html=1;fillColor=#812BD6;" parent="1" vertex="1">
          <mxGeometry x="253" y="320" width="120" height="60" as="geometry" />
        </mxCell>
        <mxCell id="my8Uk6XDIzU6nTVdbkKR-19" style="edgeStyle=orthogonalEdgeStyle;rounded=0;orthogonalLoop=1;jettySize=auto;html=1;entryX=0;entryY=0.5;entryDx=0;entryDy=0;" parent="1" source="my8Uk6XDIzU6nTVdbkKR-15" edge="1">
          <mxGeometry relative="1" as="geometry">
            <mxPoint x="673" y="351" as="targetPoint" />
          </mxGeometry>
        </mxCell>
        <mxCell id="Seqw4jIHZECM0VHpQDsF-4" value="" style="edgeStyle=orthogonalEdgeStyle;rounded=0;orthogonalLoop=1;jettySize=auto;html=1;" edge="1" parent="1" source="my8Uk6XDIzU6nTVdbkKR-15" target="Seqw4jIHZECM0VHpQDsF-3">
          <mxGeometry relative="1" as="geometry" />
        </mxCell>
        <mxCell id="my8Uk6XDIzU6nTVdbkKR-15" value="&lt;font style=&quot;font-size: 14px;&quot;&gt;Metadata Retriever&lt;/font&gt;" style="rounded=0;whiteSpace=wrap;html=1;fillColor=#FF8000;" parent="1" vertex="1">
          <mxGeometry x="463" y="321" width="120" height="59" as="geometry" />
        </mxCell>
        <mxCell id="Seqw4jIHZECM0VHpQDsF-2" value="Actor" style="shape=umlActor;verticalLabelPosition=bottom;verticalAlign=top;html=1;outlineConnect=0;" vertex="1" parent="1">
          <mxGeometry x="670" y="320" width="30" height="60" as="geometry" />
        </mxCell>
        <mxCell id="Seqw4jIHZECM0VHpQDsF-3" value="&lt;font style=&quot;font-size: 14px;&quot;&gt;CMS Manager&lt;/font&gt;" style="rounded=0;whiteSpace=wrap;html=1;fillColor=#66CC00;" vertex="1" parent="1">
          <mxGeometry x="464" y="440" width="120" height="60" as="geometry" />
        </mxCell>
      </root>
    </mxGraphModel>
  </diagram>
</mxfile>
